<?xml version="1.0" encoding="iso-8859-1"?>
<!-- Generator: Adobe Illustrator 19.0.0, SVG Export Plug-In . SVG Version: 6.00 Build 0)  -->
<svg version="1.1" id="Layer_1" xmlns="http://www.w3.org/2000/svg" xmlns:xlink="http://www.w3.org/1999/xlink" x="0px" y="0px"
	 viewBox="0 0 496 496" style="enable-background:new 0 0 496 496;" xml:space="preserve">
<polygon style="fill:#FFC114;" points="35.2,283.2 235.2,360 248,496 112,483.2 "/>
<polyline style="fill:#FFCD50;" points="248,496 112,483.2 35.2,283.2 "/>
<polygon style="fill:#F9A035;" points="120,368 166.4,488 248,496 240,414.4 "/>
<polyline style="fill:#FF9A15;" points="248,496 240,414.4 120,368 "/>
<polygon style="fill:#FFC114;" points="460.8,283.2 384,483.2 248,496 260.8,360 "/>
<polyline style="fill:#FFCD50;" points="248,496 260.8,360 460.8,283.2 "/>
<polygon style="fill:#F9A035;" points="376,368 256,414.4 248,496 329.6,488 "/>
<polyline style="fill:#FF9A15;" points="248,496 329.6,488 376,368 "/>
<polygon style="fill:#EAAD13;" points="248,0 391.2,322.4 248,496 104.8,322.4 "/>
<polyline style="fill:#FFCD50;" points="248,496 104.8,322.4 248,0 "/>
<polygon style="fill:#F9A035;" points="248,197.6 162.4,392 248,496 333.6,392 "/>
<polyline style="fill:#EF8A11;" points="248,496 333.6,392 248,197.6 "/>
<polygon style="fill:#FFC114;" points="48,75.2 128,176.8 92.8,250.4 26.4,202.4 "/>
<polyline style="fill:#FFCD50;" points="92.8,250.4 26.4,202.4 48,75.2 "/>
<polygon style="fill:#F9A035;" points="65.6,145.6 52.8,221.6 92.8,250.4 113.6,206.4 "/>
<polyline style="fill:#FF9A15;" points="92.8,250.4 113.6,206.4 65.6,145.6 "/>
<polygon style="fill:#FFC114;" points="448,75.2 368,176.8 403.2,250.4 469.6,202.4 "/>
<polyline style="fill:#FFCD50;" points="403.2,250.4 469.6,202.4 448,75.2 "/>
<polygon style="fill:#F9A035;" points="430.4,145.6 443.2,221.6 403.2,250.4 382.4,206.4 "/>
<polyline style="fill:#FF9A15;" points="403.2,250.4 382.4,206.4 430.4,145.6 "/>
<g>
</g>
<g>
</g>
<g>
</g>
<g>
</g>
<g>
</g>
<g>
</g>
<g>
</g>
<g>
</g>
<g>
</g>
<g>
</g>
<g>
</g>
<g>
</g>
<g>
</g>
<g>
</g>
<g>
</g>
</svg>
